<?xml version="1.0" standalone="no"?>
<!DOCTYPE svg PUBLIC "-//W3C//DTD SVG 20010904//EN"
 "http://www.w3.org/TR/2001/REC-SVG-20010904/DTD/svg10.dtd">
<svg version="1.0" xmlns="http://www.w3.org/2000/svg"
 width="30" height="30" viewBox="0 0 512.000000 512.000000"
 preserveAspectRatio="xMidYMid meet">

<g transform="translate(0.000000,512.000000) scale(0.100000,-0.100000)"
fill="#ffffff" stroke="none">
<path d="M1860 4853 c-247 -26 -553 -133 -765 -268 -418 -266 -708 -692 -805
-1181 -31 -152 -38 -399 -16 -559 56 -416 233 -766 537 -1061 304 -293 668
-457 1101 -495 413 -37 858 90 1185 337 47 35 88 64 91 64 4 0 322 -315 707
-700 487 -486 711 -704 737 -715 52 -21 87 -19 138 8 30 16 51 37 67 67 27 51
29 86 8 138 -11 26 -229 250 -715 737 -385 385 -700 705 -700 711 0 7 7 17 16
24 31 27 157 226 209 334 179 366 227 770 139 1165 -164 736 -767 1288 -1511
1386 -102 13 -331 18 -423 8z m315 -323 c641 -60 1152 -508 1302 -1140 36
-156 43 -391 15 -555 -54 -316 -186 -570 -411 -796 -226 -225 -480 -357 -793
-410 -167 -29 -401 -23 -558 14 -296 70 -521 197 -733 414 -427 436 -533 1093
-267 1648 239 496 730 812 1300 834 19 0 85 -4 145 -9z"/>
</g>
</svg>
